<svg id="Capa_1" enable-background="new 0 0 511.902 511.902" height="512" viewBox="0 0 511.902 511.902" width="512" xmlns="http://www.w3.org/2000/svg"><path d="m359.373 111.652c-45.567-32.715-105.746-45.04-160.751-35.84-16.243 2.717-32.175 7.227-47.404 13.501-3.794-9.819-9.672-18.806-17.447-26.402-14.47-14.137-33.605-21.667-53.84-21.189-19.195.447-37.291 8.248-50.955 21.966-13.662 13.715-21.393 31.841-21.769 51.039-.319 16.335 4.558 31.927 14.108 45.121.03.045.06.089.091.134l19.804 28.622c-17.065 31.779-26.062 67.539-26.062 103.839 0 20.821 2.919 41.44 8.676 61.284 1.539 5.305 7.089 8.357 12.39 6.817 5.304-1.538 8.357-7.086 6.818-12.39-5.231-18.033-7.884-36.777-7.884-55.712 0-29.519 6.537-58.638 19.014-85.12l10.316 14.909c8.205 11.856 26.279 11.822 34.466-.004l27.345-39.52 40.739 40.728c1.42 1.425 2.202 3.308 2.202 5.302v17.603c0 7.331 2.851 14.228 8.039 19.433l47.225 47.226c1.406 1.4 2.18 3.271 2.18 5.268v17.855c0 1.974-.795 3.898-2.191 5.29l-10.039 10.039c-5.184 5.199-8.039 12.097-8.039 19.422v119.147c-47.679-6.749-90.956-30.351-122.795-67.227-3.608-4.18-9.923-4.641-14.104-1.034-4.18 3.609-4.643 9.924-1.034 14.104 37.668 43.627 89.898 70.38 147.088 75.332 13.638 1.158 27.143.759 40.769-.232 53.995-5.271 103.949-30.337 140.662-70.584 36.958-40.516 57.312-93.054 57.312-147.937-.001-72.17-35.505-139.766-94.93-180.79zm-321.668 36.727c-7.106-9.701-10.737-21.202-10.501-33.262.274-14.018 5.937-27.27 15.943-37.315 10.007-10.047 23.236-15.759 37.25-16.086 14.832-.343 28.812 5.16 39.397 15.501 7.872 7.691 13.109 17.32 15.281 27.835 3.055 15.063-.272 30.902-9.369 43.323-.171.234-43.211 62.476-43.211 62.476-.374.541-1.189.545-1.566-.004-.001 0-42.141-60.987-43.224-62.468zm190.892 217.203 10.018-10.018c5.122-5.107 8.06-12.193 8.06-19.443v-17.855c0-7.351-2.863-14.252-8.049-19.422l-47.203-47.202c-1.414-1.419-2.192-3.302-2.192-5.302v-17.603c0-7.324-2.854-14.222-8.05-19.434l-41.978-41.967c-.447-.449-.907-.881-1.381-1.295 4.517-6.53 9.124-12.941 12.301-20.27 4.987-11.505 6.946-24.246 5.75-36.723 45.981-19.792 99.035-21.424 146.172-4.545 12.446 4.457 24.476 10.147 35.786 16.992l-17.741 17.741c-1.413 1.413-3.292 2.191-5.29 2.191h-44.437c-7.351 0-14.252 2.862-19.421 8.049l-41.069 41.068c-5.194 5.186-8.054 12.086-8.054 19.429 0 7.34 2.859 14.24 8.049 19.431l7.686 7.686c1.875 1.875 4.419 2.929 7.071 2.929h93.639c27.691 0 50.221 22.529 50.221 50.222v.04c0 18.077-7.044 35.077-19.834 47.868l-71.736 71.735c-5.183 5.2-8.037 12.098-8.037 19.421v31.62c0 1.509-.444 2.964-1.276 4.196l-17.842 26.323c-7.756.566-15.584.737-23.354.39v-120.962c-.001-1.994.782-3.876 2.191-5.29zm153.618 61.319c-28.294 31.018-65.234 52.11-105.707 60.729l7.657-11.297c3.084-4.563 4.714-9.89 4.714-15.406v-31.62c0-1.965.803-3.897 2.191-5.29l71.725-71.724c16.567-16.569 25.691-38.591 25.691-62.011v-.04c0-38.782-31.439-70.222-70.222-70.222h-86.812c-1.752 0-3.422-.712-4.657-1.955-3.739-3.766-7.65-8.514-2.785-13.371l41.086-41.085c1.4-1.405 3.271-2.18 5.268-2.18h44.438c7.288 0 14.278-2.895 19.432-8.049l20.438-20.438c50.005 37.664 79.63 96.669 79.63 159.501 0 49.883-18.498 97.635-52.087 134.458z"/><path d="m492.268 211.866c-1.625-5.278-7.219-8.241-12.499-6.616-5.278 1.625-8.241 7.221-6.616 12.499 9.744 31.659 13.432 65.121 10.665 96.77-3.139 35.896-14.291 71.353-32.251 102.534-9.891 17.172-21.844 33.182-35.528 47.585-3.439 3.62-3.644 9.418-.455 13.264 3.772 4.548 10.882 4.799 14.955.512 14.773-15.55 27.68-32.836 38.358-51.378 19.404-33.689 31.453-71.995 34.845-110.774 2.989-34.195-.979-70.295-11.474-104.396z"/><path d="m182.309 35.931c.037 3.349 1.789 6.54 4.624 8.341l30.52 19.398c4.997 3.177 11.787 1.198 14.365-4.098 2.191-4.5.582-10.099-3.637-12.781l-6.21-3.947c33.991-1.496 68.502 4.017 101.215 16.3 42.113 15.812 78.47 41.848 105.139 75.293 3.639 4.564 10.62 4.992 14.801.922 3.634-3.537 3.996-9.428.836-13.391-28.919-36.268-68.252-64.466-113.746-81.547-35.527-13.339-73.054-19.26-110.018-17.51l5.934-5.697c3.984-3.825 4.113-10.155.289-14.14-3.825-3.982-10.155-4.114-14.139-.288l-26.818 25.744c-2.03 1.899-3.183 4.63-3.155 7.401z"/><path d="m81.704 148.21c17.651 0 32.012-14.36 32.012-32.012s-14.361-32.011-32.012-32.011-32.012 14.36-32.012 32.012 14.36 32.011 32.012 32.011zm0-44.023c6.624 0 12.012 5.389 12.012 12.012s-5.389 12.012-12.012 12.012-12.012-5.389-12.012-12.012 5.388-12.012 12.012-12.012z"/><path d="m55.868 383.779c-7.461-4.872-17.443 1.999-15.251 10.743 2.235 8.918 14.807 10.137 18.732 1.844 2.091-4.419.583-9.875-3.481-12.587z"/><path d="m453.748 175.11c1.642 3.944 5.716 6.446 9.974 6.141 4.173-.298 7.775-3.284 8.892-7.306 2.36-8.504-7.175-15.77-14.763-11.235-4.257 2.543-5.9 7.841-4.103 12.4z"/></svg>